HIERARCHY
ROOT Hips
{
  OFFSET -274.024 67.2248 878.513
  CHANNELS 6 Xposition Yposition Zposition Zrotation Xrotation Yrotation
  JOINT Spine
  {
    OFFSET 0 8 0
    CHANNELS 6 Xposition Yposition Zposition Zrotation Xrotation Yrotation
    JOINT Spine1
    {
      OFFSET 0 8 0
      CHANNELS 6 Xposition Yposition Zposition Zrotation Xrotation Yrotation
      JOINT Spine2
      {
        OFFSET 0 8 0
        CHANNELS 6 Xposition Yposition Zposition Zrotation Xrotation Yrotation
        JOINT Spine3
        {
          OFFSET 0 8 0
          CHANNELS 6 Xposition Yposition Zposition Zrotation Xrotation Yrotation
          JOINT Neck
          {
            OFFSET 0 17 0
            CHANNELS 6 Xposition Yposition Zposition Zrotation Xrotation Yrotation
            JOINT Head
            {
              OFFSET 0 10.8 0
              CHANNELS 6 Xposition Yposition Zposition Zrotation Xrotation Yrotation
              End Site
              {
                OFFSET 0 20.25 0
              }
            }
          }
          JOINT LeftShoulder
          {
            OFFSET 5 17 0
            CHANNELS 6 Xposition Yposition Zposition Zrotation Xrotation Yrotation
            JOINT LeftShoulder2
            {
              OFFSET 6.45 0 0
              CHANNELS 6 Xposition Yposition Zposition Zrotation Xrotation Yrotation
              JOINT LeftArm
              {
                OFFSET 6.45 0 0
                CHANNELS 6 Xposition Yposition Zposition Zrotation Xrotation Yrotation
                JOINT LeftForeArm
                {
                  OFFSET 0 -32.4 -2
                  CHANNELS 6 Xposition Yposition Zposition Zrotation Xrotation Yrotation
                  JOINT LeftHand
                  {
                    OFFSET 0 -25.65 2
                    CHANNELS 6 Xposition Yposition Zposition Zrotation Xrotation Yrotation
                    JOINT LeftHandThumb1
                    {
                      OFFSET -0.5 -1.5 2.65
                      CHANNELS 6 Xposition Yposition Zposition Zrotation Xrotation Yrotation
                      JOINT LeftHandThumb2
                      {
                        OFFSET 0 -3.8 3.7
                        CHANNELS 6 Xposition Yposition Zposition Zrotation Xrotation Yrotation
                        JOINT LeftHandThumb3
                        {
                          OFFSET 0 -3 2.7
                          CHANNELS 6 Xposition Yposition Zposition Zrotation Xrotation Yrotation
                          End Site
                          {
                            OFFSET 0 -2.3 1.8
                          }
                        }
                      }
                    }
                    JOINT LeftHandIndex
                    {
                      OFFSET 0 -1.9 1.6
                      CHANNELS 6 Xposition Yposition Zposition Zrotation Xrotation Yrotation
                      JOINT LeftHandIndex1
                      {
                        OFFSET 0 -8.3 1.9
                        CHANNELS 6 Xposition Yposition Zposition Zrotation Xrotation Yrotation
                        JOINT LeftHandIndex2
                        {
                          OFFSET 0 -4.5 0
                          CHANNELS 6 Xposition Yposition Zposition Zrotation Xrotation Yrotation
                          JOINT LeftHandIndex3
                          {
                            OFFSET 0 -3.4 0
                            CHANNELS 6 Xposition Yposition Zposition Zrotation Xrotation Yrotation
                            End Site
                            {
                              OFFSET 0 -2.6 0
                            }
                          }
                        }
                      }
                    }
                    JOINT LeftHandMiddle
                    {
                      OFFSET -0.25 -2.2 0.4
                      CHANNELS 6 Xposition Yposition Zposition Zrotation Xrotation Yrotation
                      JOINT LeftHandMiddle1
                      {
                        OFFSET 0 -8.3 1
                        CHANNELS 6 Xposition Yposition Zposition Zrotation Xrotation Yrotation
                        JOINT LeftHandMiddle2
                        {
                          OFFSET 0 -4.65 0
                          CHANNELS 6 Xposition Yposition Zposition Zrotation Xrotation Yrotation
                          JOINT LeftHandMiddle3
                          {
                            OFFSET 0 -3.3 0
                            CHANNELS 6 Xposition Yposition Zposition Zrotation Xrotation Yrotation
                            End Site
                            {
                              OFFSET 0 -2.7 0
                            }
                          }
                        }
                      }
                    }
                    JOINT LeftHandRing
                    {
                      OFFSET -0.5 -2.15 -0.8
                      CHANNELS 6 Xposition Yposition Zposition Zrotation Xrotation Yrotation
                      JOINT LeftHandRing1
                      {
                        OFFSET 0 -7.75 -0.2
                        CHANNELS 6 Xposition Yposition Zposition Zrotation Xrotation Yrotation
                        JOINT LeftHandRing2
                        {
                          OFFSET 0 -3.8 0
                          CHANNELS 6 Xposition Yposition Zposition Zrotation Xrotation Yrotation
                          JOINT LeftHandRing3
                          {
                            OFFSET 0 -3.4 0
                            CHANNELS 6 Xposition Yposition Zposition Zrotation Xrotation Yrotation
                            End Site
                            {
                              OFFSET 0 -2.6 0
                            }
                          }
                        }
                      }
                    }
                    JOINT LeftHandPinky
                    {
                      OFFSET -0.75 -1.75 -1.85
                      CHANNELS 6 Xposition Yposition Zposition Zrotation Xrotation Yrotation
                      JOINT LeftHandPinky1
                      {
                        OFFSET 0 -7.15 -1
                        CHANNELS 6 Xposition Yposition Zposition Zrotation Xrotation Yrotation
                        JOINT LeftHandPinky2
                        {
                          OFFSET 0 -3 0
                          CHANNELS 6 Xposition Yposition Zposition Zrotation Xrotation Yrotation
                          JOINT LeftHandPinky3
                          {
                            OFFSET 0 -2.35 0
                            CHANNELS 6 Xposition Yposition Zposition Zrotation Xrotation Yrotation
                            End Site
                            {
                              OFFSET 0 -2.1 0
                            }
                          }
                        }
                      }
                    }
                  }
                }
              }
            }
          }
          JOINT RightShoulder
          {
            OFFSET -5 17 0
            CHANNELS 6 Xposition Yposition Zposition Zrotation Xrotation Yrotation
            JOINT RightShoulder2
            {
              OFFSET -6.45 0 0
              CHANNELS 6 Xposition Yposition Zposition Zrotation Xrotation Yrotation
              JOINT RightArm
              {
                OFFSET -6.45 0 0
                CHANNELS 6 Xposition Yposition Zposition Zrotation Xrotation Yrotation
                JOINT RightForeArm
                {
                  OFFSET 0 -32.4 -2
                  CHANNELS 6 Xposition Yposition Zposition Zrotation Xrotation Yrotation
                  JOINT RightHand
                  {
                    OFFSET 0 -25.65 2
                    CHANNELS 6 Xposition Yposition Zposition Zrotation Xrotation Yrotation
                    JOINT RightHandThumb1
                    {
                      OFFSET 0.5 -1.5 2.65
                      CHANNELS 6 Xposition Yposition Zposition Zrotation Xrotation Yrotation
                      JOINT RightHandThumb2
                      {
                        OFFSET 0 -3.8 3.7
                        CHANNELS 6 Xposition Yposition Zposition Zrotation Xrotation Yrotation
                        JOINT RightHandThumb3
                        {
                          OFFSET 0 -3 2.7
                          CHANNELS 6 Xposition Yposition Zposition Zrotation Xrotation Yrotation
                          End Site
                          {
                            OFFSET 0 -2.3 1.8
                          }
                        }
                      }
                    }
                    JOINT RightHandIndex
                    {
                      OFFSET 0 -1.9 1.6
                      CHANNELS 6 Xposition Yposition Zposition Zrotation Xrotation Yrotation
                      JOINT RightHandIndex1
                      {
                        OFFSET 0 -8.3 1.9
                        CHANNELS 6 Xposition Yposition Zposition Zrotation Xrotation Yrotation
                        JOINT RightHandIndex2
                        {
                          OFFSET 0 -4.5 0
                          CHANNELS 6 Xposition Yposition Zposition Zrotation Xrotation Yrotation
                          JOINT RightHandIndex3
                          {
                            OFFSET 0 -3.4 0
                            CHANNELS 6 Xposition Yposition Zposition Zrotation Xrotation Yrotation
                            End Site
                            {
                              OFFSET 0 -2.6 0
                            }
                          }
                        }
                      }
                    }
                    JOINT RightHandMiddle
                    {
                      OFFSET 0.25 -2.2 0.4
                      CHANNELS 6 Xposition Yposition Zposition Zrotation Xrotation Yrotation
                      JOINT RightHandMiddle1
                      {
                        OFFSET 0 -8.3 1
                        CHANNELS 6 Xposition Yposition Zposition Zrotation Xrotation Yrotation
                        JOINT RightHandMiddle2
                        {
                          OFFSET 0 -4.65 0
                          CHANNELS 6 Xposition Yposition Zposition Zrotation Xrotation Yrotation
                          JOINT RightHandMiddle3
                          {
                            OFFSET 0 -3.3 0
                            CHANNELS 6 Xposition Yposition Zposition Zrotation Xrotation Yrotation
                            End Site
                            {
                              OFFSET 0 -2.7 0
                            }
                          }
                        }
                      }
                    }
                    JOINT RightHandRing
                    {
                      OFFSET 0.5 -2.15 -0.8
                      CHANNELS 6 Xposition Yposition Zposition Zrotation Xrotation Yrotation
                      JOINT RightHandRing1
                      {
                        OFFSET 0 -7.75 -0.2
                        CHANNELS 6 Xposition Yposition Zposition Zrotation Xrotation Yrotation
                        JOINT RightHandRing2
                        {
                          OFFSET 0 -3.8 0
                          CHANNELS 6 Xposition Yposition Zposition Zrotation Xrotation Yrotation
                          JOINT RightHandRing3
                          {
                            OFFSET 0 -3.4 0
                            CHANNELS 6 Xposition Yposition Zposition Zrotation Xrotation Yrotation
                            End Site
                            {
                              OFFSET 0 -2.6 0
                            }
                          }
                        }
                      }
                    }
                    JOINT RightHandPinky
                    {
                      OFFSET 0.75 -1.75 -1.85
                      CHANNELS 6 Xposition Yposition Zposition Zrotation Xrotation Yrotation
                      JOINT RightHandPinky1
                      {
                        OFFSET 0 -7.15 -1
                        CHANNELS 6 Xposition Yposition Zposition Zrotation Xrotation Yrotation
                        JOINT RightHandPinky2
                        {
                          OFFSET 0 -3 0
                          CHANNELS 6 Xposition Yposition Zposition Zrotation Xrotation Yrotation
                          JOINT RightHandPinky3
                          {
                            OFFSET 0 -2.35 0
                            CHANNELS 6 Xposition Yposition Zposition Zrotation Xrotation Yrotation
                            End Site
                            {
                              OFFSET 0 -2.1 0
                            }
                          }
                        }
                      }
                    }
                  }
                }
              }
            }
          }
        }
      }
    }
  }
  JOINT LeftUpLeg
  {
    OFFSET 8 0 0
    CHANNELS 6 Xposition Yposition Zposition Zrotation Xrotation Yrotation
    JOINT LeftLeg
    {
      OFFSET 0 -45 -1
      CHANNELS 6 Xposition Yposition Zposition Zrotation Xrotation Yrotation
      JOINT LeftFoot
      {
        OFFSET 0 -41 -2
        CHANNELS 6 Xposition Yposition Zposition Zrotation Xrotation Yrotation
        JOINT LeftToeBase
        {
          OFFSET 0 -7.5 12.5
          CHANNELS 6 Xposition Yposition Zposition Zrotation Xrotation Yrotation
          JOINT LeftFootToe
          {
            OFFSET 0 0 4
            CHANNELS 6 Xposition Yposition Zposition Zrotation Xrotation Yrotation
            End Site
            {
              OFFSET 0 0 0
            }
          }
        }
      }
    }
  }
  JOINT RightUpLeg
  {
    OFFSET -8 0 0
    CHANNELS 6 Xposition Yposition Zposition Zrotation Xrotation Yrotation
    JOINT RightLeg
    {
      OFFSET 0 -45 -1
      CHANNELS 6 Xposition Yposition Zposition Zrotation Xrotation Yrotation
      JOINT RightFoot
      {
        OFFSET 0 -41 -2
        CHANNELS 6 Xposition Yposition Zposition Zrotation Xrotation Yrotation
        JOINT RightToeBase
        {
          OFFSET 0 -7.5 12.5
          CHANNELS 6 Xposition Yposition Zposition Zrotation Xrotation Yrotation
          JOINT RightFootToe
          {
            OFFSET 0 0 4
            CHANNELS 6 Xposition Yposition Zposition Zrotation Xrotation Yrotation
            End Site
            {
              OFFSET 0 0 0
            }
          }
        }
      }
    }
  }
}
MOTION
Frames:	3
Frame Time:	0.0111111
-195.826 93.0776 1330.17 -9.04654 -7.49065 151.671 -5.68434e-14 8 0 10.6719 14.2774 -1.15332 -1.13687e-13 8 0 0.406768 6.71347 1.15475 -5.68434e-14 8 0 0.217457 3.35898 0.586728 0 8 0 0.217096 3.353 0.585701 5.68434e-14 17 2.27374e-13 2.44748 1.52354 -5.71156 0 10.8 0 5.94177 3.16487 -13.4577 5 17 0 -10.2448 -0.660113 -3.13407 6.45 0 -2.27374e-13 0.0334615 -0.60959 -0.880115 6.45 -1.13687e-13 0 29.9512 -2.90204 -11.2661 1.13687e-13 -32.4 -2 9.62934 -33.3503 -26.3267 0 -25.65 2 19.0199 -29.8243 -18.2075 -0.5 -1.5 2.65 -33.3128 -36.6413 44.7656 0 -3.8 3.7 -0.0239004 14.8762 -0.000217775 0 -3 2.7 -0.00721773 29.1274 0.00489098 0 -1.9 1.6 3.18055e-15 4.77083e-15 3.18055e-15 0 -8.3 1.9 -26.5203 10.192 2.68791 0 -4.5 8.52651e-14 -63.4963 0.00162862 0.00214903 0 -3.4 0 -45.1729 0.000365113 0.00375865 -0.25 -2.2 0.4 3.18055e-15 4.77083e-15 3.18055e-15 0 -8.3 1 -41.3711 13.0252 6.42559 2.27374e-13 -4.65 -5.68434e-14 -55.8695 0.00451784 0.00117587 0 -3.3 0 -90.0002 -1.74931e-14 1.59028e-15 -0.5 -2.15 -0.8 3.18055e-15 4.77083e-15 3.18055e-15 0 -7.75 -0.2 -61.0259 8.82821 9.22037 -2.27374e-13 -3.8 5.68434e-14 -59.9543 -0.00603874 0.0019609 0 -3.4 -2.84217e-14 -90.0002 0.00281162 2.54444e-14 -0.75 -1.75 -1.85 3.18055e-15 4.77083e-15 3.18055e-15 -1.13687e-13 -7.15 -1 -64.5621 6.81464 9.59185 0 -3 2.84217e-14 -55.838 0.00301656 0.0047171 0 -2.35 -2.84217e-14 -38.7193 -0.00175066 0.00256436 -5 17 0 -1.29064 -0.246793 -7.37699 -6.45 0 0 -1.29897 0.345279 0.416334 -6.45 1.13687e-13 0 -67.2068 -39.1099 -2.90722 -2.84217e-14 -32.4 -2 -13.5002 -38.1239 -11.147 7.10543e-15 -25.65 2 13.3653 -6.35027 17.2976 0.5 -1.5 2.65 24.3488 23.4554 -108 0 -3.8 3.7 0.323972 17.6238 0.00580764 -2.27374e-13 -3 2.7 0.0448762 55.716 -0.0314384 0 -1.9 1.6 -7.95139e-15 3.18055e-15 -6.36111e-15 -5.68434e-14 -8.3 1.9 14.9972 -0.198643 -0.0588037 0 -4.5 0 38.8657 -0.00112213 -0.00225114 0 -3.4 -1.13687e-13 27.3981 -0.000629718 0.000421276 0.25 -2.2 0.4 -7.95139e-15 3.18055e-15 -6.36111e-15 5.68434e-14 -8.3 1 18.4976 3.1474 -0.966162 0 -4.65 0 78.8862 0.0001589 0.00250833 0 -3.3 0 64.0387 0.00176471 0.000377247 0.5 -2.15 -0.8 -7.95139e-15 3.18055e-15 -6.36111e-15 0 -7.75 -0.2 34.6376 2.50841 -2.26254 -1.13687e-13 -3.8 0 65.8334 -0.0110583 -0.00926785 0 -3.4 1.13687e-13 47.427 -0.0151833 0.0013215 0.75 -1.75 -1.85 -7.95139e-15 3.18055e-15 -6.36111e-15 -5.68434e-14 -7.15 -1 47.0262 -6.65172 0.0499806 0 -3 0 28.5975 0.0118082 0.00174637 0 -2.35 0 21.2512 0.00410007 -0.010697 8 1.42109e-14 0 1.60877 -19.3317 -31.0166 0 -45 -1 -0.984359 22.0438 6.7969 -1.13687e-13 -41 -2 -4.72863 2.61186 -12.9837 0 -7.5 12.5 3.49074e-16 -19.7863 3.38011e-15 2.27374e-13 -3.55271e-15 4 -1.38294 12.3004 90.2799 -8 0 0 -2.61734 -20.9216 8.92547 2.84217e-14 -45 -1 0.0262829 16.8304 -0.261608 0 -41 -2 -0.285371 -6.58324 10.1795 2.84217e-14 -7.5 12.5 -5.33846e-19 0 1.59028e-15 0 0 4 2.78816 -1.57087 21.7304 
-195.827 93.0752 1330.17 -9.0662 -7.49564 151.663 0 8 0 10.6672 14.2747 -1.15335 0 8 0 0.410419 6.71649 1.14675 0 8 0 0.218344 3.36044 0.586374 -1.13687e-13 8 0 0.217982 3.35445 0.585347 5.68434e-14 17 0 2.43647 1.51536 -5.71424 0 10.8 -2.27374e-13 5.91486 3.14742 -13.4626 5 17 0 -10.2514 -0.67753 -3.08987 6.45 1.13687e-13 2.27374e-13 0.0340087 -0.609008 -0.880188 6.45 -1.13687e-13 0 29.9283 -2.89049 -11.3395 0 -32.4 -2 9.64759 -33.374 -26.2656 2.27374e-13 -25.65 2 19.0598 -29.8106 -18.2122 -0.5 -1.5 2.65 -33.3286 -36.6401 44.7488 0 -3.8 3.7 -0.0239012 14.8752 -0.000214684 0 -3 2.7 -0.00718456 29.1002 0.00488968 0 -1.9 1.6 -6.36111e-15 0 6.36111e-15 1.13687e-13 -8.3 1.9 -26.5105 10.1911 2.68762 2.27374e-13 -4.5 0 -63.4921 0.00161471 0.00214328 0 -3.4 0 -45.169 0.00034495 0.00374556 -0.25 -2.2 0.4 -6.36111e-15 0 6.36111e-15 -1.13687e-13 -8.3 1 -41.3632 13.0257 6.42346 2.27374e-13 -4.65 0 -55.8755 0.00450177 0.00117795 0 -3.3 2.84217e-14 -90.0002 -5.40694e-14 3.18055e-14 -0.5 -2.15 -0.8 -6.36111e-15 0 6.36111e-15 0 -7.75 -0.2 -61.0159 8.82859 9.21856 0 -3.8 0 -59.9641 -0.00605059 0.00196644 -5.68434e-14 -3.4 0 -90.0002 0.00281162 4.45278e-14 -0.75 -1.75 -1.85 -6.36111e-15 0 6.36111e-15 1.13687e-13 -7.15 -1 -64.5529 6.81457 9.59055 0 -3 0 -55.8317 0.00302535 0.00471246 0 -2.35 2.84217e-14 -38.7145 -0.00174064 0.00256249 -5 17 0 -1.29058 -0.239647 -7.31702 -6.45 1.13687e-13 0 -1.30235 0.345292 0.406582 -6.45 -1.13687e-13 0 -67.237 -39.0776 -2.93791 -2.84217e-14 -32.4 -2 -13.5132 -38.1497 -11.1659 -1.42109e-14 -25.65 2 13.3791 -6.35061 17.2683 0.5 -1.5 2.65 24.3411 23.4916 -107.974 0 -3.8 3.7 0.323996 17.5884 0.00581695 -2.27374e-13 -3 2.7 0.0448909 55.716 -0.0314466 0 -1.9 1.6 1.11319e-14 6.36111e-15 -3.18055e-15 -5.68434e-14 -8.3 1.9 14.9627 -0.222411 -0.0555492 0 -4.5 0 38.9215 -0.00114616 -0.00232826 0 -3.4 0 27.4319 -0.000639425 0.000372528 0.25 -2.2 0.4 1.11319e-14 6.36111e-15 -3.18055e-15 5.68434e-14 -8.3 1 18.4678 3.11992 -0.95922 -1.13687e-13 -4.65 0 78.8869 0.000117291 0.00252231 0 -3.3 0 64.0399 0.00173186 0.0004205 0.5 -2.15 -0.8 1.11319e-14 6.36111e-15 -3.18055e-15 0 -7.75 -0.2 34.5851 2.48395 -2.24905 -1.13687e-13 -3.8 1.13687e-13 65.8265 -0.0111258 -0.0093294 1.13687e-13 -3.4 -1.13687e-13 47.4201 -0.0152738 0.00131154 0.75 -1.75 -1.85 1.11319e-14 6.36111e-15 -3.18055e-15 5.68434e-14 -7.15 -1 46.9264 -6.6721 0.062927 -2.27374e-13 -3 1.13687e-13 28.6937 0.0118487 0.00176598 0 -2.35 1.13687e-13 21.3092 0.00410911 -0.0107252 8 -1.42109e-14 0 1.59121 -19.3452 -31.03 0 -45 -1 -0.984363 22.0441 6.79709 1.13687e-13 -41 -2 -4.7285 2.60621 -12.9659 0 -7.5 12.5 5.43408e-16 -19.7845 -1.01402e-14 2.27374e-13 0 4 -1.38202 12.3016 90.2798 -8 0 0 -2.63152 -20.9534 8.91338 2.84217e-14 -45 -1 0.0264682 16.8644 -0.262419 -5.68434e-14 -41 -2 -0.281486 -6.60018 10.1923 2.84217e-14 -7.5 12.5 2.18391e-19 -1.94126e-19 -1.59028e-15 -2.84217e-14 0 4 2.78663 -1.57836 21.7306 
-195.829 93.0728 1330.17 -9.09409 -7.50136 151.644 -5.68434e-14 8 -4.54747e-13 10.659 14.2678 -1.15275 -1.13687e-13 8 0 0.412013 6.71991 1.14268 5.68434e-14 8 0 0.21921 3.36192 0.586068 -1.13687e-13 8 2.27374e-13 0.218847 3.35593 0.58504 -5.68434e-14 17 0 2.42473 1.50661 -5.7165 0 10.8 0 5.8862 3.12862 -13.4678 5 17 0 -10.2613 -0.693504 -3.04838 6.45 0 0 0.0343211 -0.608472 -0.880277 6.45 0 0 29.9035 -2.87761 -11.3953 0 -32.4 -2 9.66413 -33.4027 -26.2036 -2.27374e-13 -25.65 2 19.0958 -29.7945 -18.2289 -0.5 -1.5 2.65 -33.3447 -36.6376 44.7326 0 -3.8 3.7 -0.023841 14.8698 -0.00021161 2.27374e-13 -3 2.7 -0.00716808 29.0877 0.00488909 0 -1.9 1.6 3.18055e-15 0 -3.18055e-15 0 -8.3 1.9 -26.5044 10.1903 2.68735 2.27374e-13 -4.5 0 -63.4858 0.00160089 0.00213753 0 -3.4 -5.68434e-14 -45.1632 0.0003248 0.0037325 -0.25 -2.2 0.4 3.18055e-15 0 -3.18055e-15 -1.13687e-13 -8.3 1 -41.3527 13.0261 6.42123 0 -4.65 -2.84217e-14 -55.8921 0.00448572 0.00117998 1.13687e-13 -3.3 0 -90.0002 2.38542e-14 -3.18055e-14 -0.5 -2.15 -0.8 3.18055e-15 0 -3.18055e-15 1.13687e-13 -7.75 -0.2 -61.0082 8.82933 9.21698 -2.27374e-13 -3.8 -2.84217e-14 -59.9688 -0.00606246 0.00197201 0 -3.4 -5.68434e-14 -90.0002 0.00281162 -3.18055e-14 -0.75 -1.75 -1.85 3.18055e-15 0 -3.18055e-15 -2.27374e-13 -7.15 -1 -64.5406 6.81829 9.58928 0 -3 -2.84217e-14 -55.8315 0.00303416 0.0047078 0 -2.35 5.68434e-14 -38.7144 -0.00173061 0.00256062 -5 17 0 -1.29246 -0.229346 -7.25749 -6.45 0 -2.27374e-13 -1.30271 0.345305 0.398385 -6.45 0 0 -67.2702 -39.0426 -2.96145 -2.84217e-14 -32.4 -2 -13.5337 -38.1741 -11.1847 -1.42109e-14 -25.65 2 13.3884 -6.35796 17.2425 0.5 -1.5 2.65 24.3405 23.5229 -107.967 0 -3.8 3.7 0.324018 17.5602 0.00582647 0 -3 2.7 0.0449056 55.716 -0.0314548 0 -1.9 1.6 -8.82781e-32 -3.18055e-15 -1.59028e-15 -5.68434e-14 -8.3 1.9 14.9304 -0.257336 -0.0507448 0 -4.5 0 38.9842 -0.00117065 -0.00240617 -2.27374e-13 -3.4 1.13687e-13 27.4698 -0.000649202 0.000322984 0.25 -2.2 0.4 -8.82781e-32 -3.18055e-15 -1.59028e-15 -5.68434e-14 -8.3 1 18.4376 3.07966 -0.950176 0 -4.65 0 78.8923 7.5302e-05 0.00253661 0 -3.3 0 64.0487 0.00169778 0.000464598 0.5 -2.15 -0.8 -8.82781e-32 -3.18055e-15 -1.59028e-15 0 -7.75 -0.2 34.5309 2.44902 -2.23227 0 -3.8 0 65.8529 -0.0111933 -0.00939131 1.13687e-13 -3.4 -1.13687e-13 47.4465 -0.0153641 0.00130241 0.75 -1.75 -1.85 -8.82781e-32 -3.18055e-15 -1.59028e-15 0 -7.15 -1 46.8252 -6.69868 0.0782936 0 -3 0 28.798 0.0118888 0.00178484 -2.27374e-13 -2.35 0 21.372 0.00411788 -0.0107522 8 -2.84217e-14 -2.27374e-13 1.56869 -19.3592 -31.0394 1.13687e-13 -45 -1 -0.984281 22.0437 6.79724 0 -41 -2 -4.72944 2.59965 -12.9415 0 -7.5 12.5 2.28806e-15 -19.7834 6.7601e-15 0 0 4 -1.38167 12.3027 90.2799 -8 -1.42109e-14 -2.27374e-13 -2.65029 -20.9957 8.90306 0 -45 -1 0.0267106 16.9093 -0.26326 5.68434e-14 -41 -2 -0.280562 -6.62257 10.2115 0 -7.5 12.5 -3.63986e-20 -9.70628e-20 -1.59028e-15 0 0 4 2.78422 -1.58561 21.7307 
